<?xml version="1.0" encoding="UTF-8" standalone="no"?>
<!-- Created with Bouml (http://bouml.free.fr/) -->
<!DOCTYPE svg PUBLIC "-//W3C//DTD SVG 1.1//EN" "http://www.w3.org/Graphics/SVG/1.1/DTD/svg11.dtd">
<svg width="461" height="707" version="1.1" xmlns="http://www.w3.org/2000/svg">
<g>
	<line stroke="black" stroke-opacity="1" x1="159" y1="376" x2="165" y2="370" />
	<line stroke="black" stroke-opacity="1" x1="159" y1="376" x2="153" y2="369" />
	<line stroke="black" stroke-opacity="1" x1="165" y1="289" x2="159" y2="376" />
</g>
<g>
	<line stroke="black" stroke-opacity="1" x1="233" y1="191" x2="241" y2="193" />
	<line stroke="black" stroke-opacity="1" x1="233" y1="191" x2="235" y2="182" />
	<line stroke="black" stroke-opacity="1" x1="320" y1="144" x2="233" y2="191" />
	<polygon fill="#ffffff" stroke="black" stroke-opacity="1" points="320,144 317,152 309,149 311,141" />
</g>
<g>
	<rect fill="#808080" stroke="none" stroke-opacity="1" x="210" y="569" width="3" height="53" />
	<rect fill="#808080" stroke="none" stroke-opacity="1" x="152" y="619" width="61" height="3" />
	<rect fill="#ffffc0" stroke="black" stroke-width="1" stroke-opacity="1" x="148" y="565" width="62" height="54" />
	<text font-family="Helvetica" font-size="11" fill="#000000" xml:space="preserve" text-anchor="middle" x="179" y="579">&lt;&lt;table&gt;&gt;</text>
	<text font-family="Helvetica" font-size="11" fill="#000000" xml:space="preserve" font-weight="bold" text-anchor="middle" x="179" y="598">Category</text>
	<line stroke="black" stroke-opacity="1" x1="148" y1="603" x2="210" y2="603" />
	<line stroke="black" stroke-opacity="1" x1="148" y1="611" x2="210" y2="611" />
</g>
<g>
	<rect fill="#808080" stroke="none" stroke-opacity="1" x="107" y="51" width="3" height="33" />
	<rect fill="#808080" stroke="none" stroke-opacity="1" x="71" y="81" width="39" height="3" />
	<rect fill="#ffffc0" stroke="black" stroke-width="1" stroke-opacity="1" x="67" y="47" width="40" height="34" />
	<text font-family="Helvetica" font-size="11" fill="#000000" xml:space="preserve" font-weight="bold" text-anchor="middle" x="87" y="61">Client</text>
	<line stroke="black" stroke-opacity="1" x1="67" y1="66" x2="107" y2="66" />
	<line stroke="black" stroke-opacity="1" x1="67" y1="74" x2="107" y2="74" />
</g>
<g>
	<rect fill="#808080" stroke="none" stroke-opacity="1" x="445" y="55" width="3" height="115" />
	<rect fill="#808080" stroke="none" stroke-opacity="1" x="325" y="167" width="123" height="3" />
	<rect fill="#ffffc0" stroke="black" stroke-width="1" stroke-opacity="1" x="321" y="51" width="124" height="116" />
	<text font-family="Helvetica" font-size="11" fill="#000000" xml:space="preserve" text-anchor="middle" x="383" y="65">&lt;&lt;bizComponent&gt;&gt;</text>
	<text font-family="Helvetica" font-size="11" fill="#000000" xml:space="preserve" font-weight="bold" text-anchor="middle" x="383" y="84">Catalog</text>
	<line stroke="black" stroke-opacity="1" x1="321" y1="89" x2="445" y2="89" />
	<line stroke="black" stroke-opacity="1" x1="321" y1="97" x2="445" y2="97" />
	<text font-family="Helvetica" font-size="11" fill="#000000" xml:space="preserve" font-weight="bold" x="325" y="111">+</text>
	<text font-family="Helvetica" font-size="11" fill="#000000" xml:space="preserve" x="339" y="111">findAllCategories()</text>
	<text font-family="Helvetica" font-size="11" fill="#000000" xml:space="preserve" font-weight="bold" x="325" y="128">+</text>
	<text font-family="Helvetica" font-size="11" fill="#000000" xml:space="preserve" x="339" y="128">findCategory()</text>
	<text font-family="Helvetica" font-size="11" fill="#000000" xml:space="preserve" font-weight="bold" x="325" y="145">+</text>
	<text font-family="Helvetica" font-size="11" fill="#000000" xml:space="preserve" x="339" y="145">addCategory()</text>
	<text font-family="Helvetica" font-size="11" fill="#000000" xml:space="preserve" font-weight="bold" x="325" y="162">+</text>
	<text font-family="Helvetica" font-size="11" fill="#000000" xml:space="preserve" x="339" y="162">addCategories()</text>
</g>
<g>
	<rect fill="#808080" stroke="none" stroke-opacity="1" x="229" y="173" width="3" height="115" />
	<rect fill="#808080" stroke="none" stroke-opacity="1" x="109" y="285" width="123" height="3" />
	<rect fill="#ffffc0" stroke="black" stroke-width="1" stroke-opacity="1" x="105" y="169" width="124" height="116" />
	<text font-family="Helvetica" font-size="11" fill="#000000" xml:space="preserve" text-anchor="middle" x="167" y="183">&lt;&lt;bizUnit&gt;&gt;</text>
	<text font-family="Helvetica" font-size="11" fill="#000000" xml:space="preserve" font-weight="bold" text-anchor="middle" x="167" y="202">CategoryMgr</text>
	<line stroke="black" stroke-opacity="1" x1="105" y1="207" x2="229" y2="207" />
	<line stroke="black" stroke-opacity="1" x1="105" y1="215" x2="229" y2="215" />
	<text font-family="Helvetica" font-size="11" fill="#000000" xml:space="preserve" font-weight="bold" x="109" y="229">+</text>
	<text font-family="Helvetica" font-size="11" fill="#000000" xml:space="preserve" x="123" y="229">findAllCategories()</text>
	<text font-family="Helvetica" font-size="11" fill="#000000" xml:space="preserve" font-weight="bold" x="109" y="246">+</text>
	<text font-family="Helvetica" font-size="11" fill="#000000" xml:space="preserve" x="123" y="246">findCategory()</text>
	<text font-family="Helvetica" font-size="11" fill="#000000" xml:space="preserve" font-weight="bold" x="109" y="263">+</text>
	<text font-family="Helvetica" font-size="11" fill="#000000" xml:space="preserve" x="123" y="263">addCategory()</text>
	<text font-family="Helvetica" font-size="11" fill="#000000" xml:space="preserve" font-weight="bold" x="109" y="280">+</text>
	<text font-family="Helvetica" font-size="11" fill="#000000" xml:space="preserve" x="123" y="280">addCategories()</text>
</g>
<g>
	<rect fill="#808080" stroke="none" stroke-opacity="1" x="408" y="579" width="3" height="115" />
	<rect fill="#808080" stroke="none" stroke-opacity="1" x="344" y="691" width="67" height="3" />
	<rect fill="#ffffc0" stroke="black" stroke-width="1" stroke-opacity="1" x="340" y="575" width="68" height="116" />
	<text font-family="Helvetica" font-size="11" fill="#000000" xml:space="preserve" text-anchor="middle" x="374" y="589">&lt;&lt;table&gt;&gt;</text>
	<text font-family="Helvetica" font-size="11" fill="#000000" xml:space="preserve" font-weight="bold" font-style="italic" text-anchor="middle" x="374" y="608">Table</text>
	<line stroke="black" stroke-opacity="1" x1="340" y1="613" x2="408" y2="613" />
	<line stroke="black" stroke-opacity="1" x1="340" y1="621" x2="408" y2="621" />
	<text font-family="Helvetica" font-size="11" fill="#000000" xml:space="preserve" font-weight="bold" x="344" y="635">+</text>
	<text font-family="Helvetica" font-size="11" fill="#000000" xml:space="preserve" x="358" y="635">select()</text>
	<text font-family="Helvetica" font-size="11" fill="#000000" xml:space="preserve" font-weight="bold" x="344" y="652">+</text>
	<text font-family="Helvetica" font-size="11" fill="#000000" xml:space="preserve" x="358" y="652">insert()</text>
	<text font-family="Helvetica" font-size="11" fill="#000000" xml:space="preserve" font-weight="bold" x="344" y="669">+</text>
	<text font-family="Helvetica" font-size="11" fill="#000000" xml:space="preserve" x="358" y="669">update()</text>
	<text font-family="Helvetica" font-size="11" fill="#000000" xml:space="preserve" font-weight="bold" x="344" y="686">+</text>
	<text font-family="Helvetica" font-size="11" fill="#000000" xml:space="preserve" x="358" y="686">delete()</text>
</g>
<g>
	<rect fill="#808080" stroke="none" stroke-opacity="1" x="217" y="381" width="3" height="97" />
	<rect fill="#808080" stroke="none" stroke-opacity="1" x="97" y="475" width="123" height="3" />
	<rect fill="#ffffc0" stroke="black" stroke-width="1" stroke-opacity="1" x="93" y="377" width="124" height="98" />
	<text font-family="Helvetica" font-size="11" fill="#000000" xml:space="preserve" text-anchor="middle" x="155" y="391">&lt;&lt;sqlMap&gt;&gt;</text>
	<text font-family="Helvetica" font-size="11" fill="#000000" xml:space="preserve" font-weight="bold" text-anchor="middle" x="155" y="410">CategoryMgr.xsql</text>
	<line stroke="black" stroke-opacity="1" x1="93" y1="415" x2="217" y2="415" />
	<line stroke="black" stroke-opacity="1" x1="93" y1="423" x2="217" y2="423" />
	<text font-family="Helvetica" font-size="11" fill="#000000" xml:space="preserve" font-weight="bold" x="97" y="437">+</text>
	<text font-family="Helvetica" font-size="11" fill="#000000" xml:space="preserve" x="111" y="437">findAllCategories()</text>
	<text font-family="Helvetica" font-size="11" fill="#000000" xml:space="preserve" font-weight="bold" x="97" y="454">+</text>
	<text font-family="Helvetica" font-size="11" fill="#000000" xml:space="preserve" x="111" y="454">findCategory()</text>
	<text font-family="Helvetica" font-size="11" fill="#000000" xml:space="preserve" font-weight="bold" x="97" y="471">+</text>
	<text font-family="Helvetica" font-size="11" fill="#000000" xml:space="preserve" x="111" y="471">addCategory()</text>
</g>
</svg>
