<?xml version="1.0" encoding="UTF-8"?>
<svg xmlns="http://www.w3.org/2000/svg" xmlns:xlink="http://www.w3.org/1999/xlink" fill-opacity="1" color-rendering="auto" color-interpolation="auto" stroke="black" text-rendering="auto" stroke-linecap="square" width="866" stroke-miterlimit="10" stroke-opacity="1" shape-rendering="auto" fill="black" stroke-dasharray="none" font-weight="normal" stroke-width="1" height="846" font-family="'Dialog'" font-style="normal" stroke-linejoin="miter" font-size="12" stroke-dashoffset="0" image-rendering="auto">
  <!--Generated by ySVG-->
  <defs id="genericDefs"/>
  <g>
    <defs id="defs1">
      <clipPath clipPathUnits="userSpaceOnUse" id="clipPath1">
        <path d="M0 0 L866 0 L866 846 L0 846 L0 0 Z"/>
      </clipPath>
      <clipPath clipPathUnits="userSpaceOnUse" id="clipPath2">
        <path d="M18 -1 L884 -1 L884 845 L18 845 L18 -1 Z"/>
      </clipPath>
    </defs>
    <g fill="white" transform="translate(-18,1)" stroke="white">
      <rect x="18" width="866" height="846" y="-1" clip-path="url(#clipPath2)" stroke="none"/>
    </g>
    <g fill="rgb(255,204,0)" transform="matrix(1,0,0,1,-18,1)" stroke="rgb(255,204,0)">
      <rect x="240" y="33" clip-path="url(#clipPath2)" width="120" rx="4" ry="4" height="94" stroke="none"/>
      <text x="269.0654" y="77.4805" clip-path="url(#clipPath2)" fill="black" font-family="'Verdana'" stroke="none" xml:space="preserve">&lt;&lt;tool&gt;&gt;</text>
      <text x="228.8584" y="92.0645" clip-path="url(#clipPath2)" fill="black" font-family="'Verdana'" stroke="none" xml:space="preserve">Component Meta Editor</text>
    </g>
    <g stroke-linecap="butt" transform="matrix(1,0,0,1,-18,1)" stroke-miterlimit="1.45">
      <rect x="240" y="33" clip-path="url(#clipPath2)" fill="none" width="120" rx="4" ry="4" height="94"/>
    </g>
    <g fill="rgb(255,204,0)" transform="matrix(1,0,0,1,-18,1)" stroke="rgb(255,204,0)">
      <rect x="240" y="233" clip-path="url(#clipPath2)" width="120" rx="4" ry="4" height="94" stroke="none"/>
      <text x="269.3262" y="277.4805" clip-path="url(#clipPath2)" fill="black" font-family="'Verdana'" stroke="none" xml:space="preserve">&lt;&lt;xml&gt;&gt;</text>
      <text x="248.7129" y="292.0645" clip-path="url(#clipPath2)" fill="black" font-family="'Verdana'" stroke="none" xml:space="preserve">Component Meta</text>
    </g>
    <g stroke-linecap="butt" transform="matrix(1,0,0,1,-18,1)" stroke-miterlimit="1.45">
      <rect x="240" y="233" clip-path="url(#clipPath2)" fill="none" width="120" rx="4" ry="4" height="94"/>
    </g>
    <g fill="rgb(255,204,0)" transform="matrix(1,0,0,1,-18,1)" stroke="rgb(255,204,0)">
      <rect x="60" y="233" clip-path="url(#clipPath2)" width="120" rx="4" ry="4" height="94" stroke="none"/>
      <text x="77.2969" y="277.4805" clip-path="url(#clipPath2)" fill="black" font-family="'Verdana'" stroke="none" xml:space="preserve">&lt;&lt;schema&gt;&gt;</text>
      <text x="52.0049" y="292.0645" clip-path="url(#clipPath2)" fill="black" font-family="'Verdana'" stroke="none" xml:space="preserve">Component Meta Meta</text>
    </g>
    <g stroke-linecap="butt" transform="matrix(1,0,0,1,-18,1)" stroke-miterlimit="1.45">
      <rect x="60" y="233" clip-path="url(#clipPath2)" fill="none" width="120" rx="4" ry="4" height="94"/>
    </g>
    <g fill="rgb(255,204,0)" transform="matrix(1,0,0,1,-18,1)" stroke="rgb(255,204,0)">
      <rect x="420" y="33" clip-path="url(#clipPath2)" width="120" rx="4" ry="4" height="94" stroke="none"/>
      <text x="449.0654" y="77.4805" clip-path="url(#clipPath2)" fill="black" font-family="'Verdana'" stroke="none" xml:space="preserve">&lt;&lt;tool&gt;&gt;</text>
      <text x="402.6562" y="92.0645" clip-path="url(#clipPath2)" fill="black" font-family="'Verdana'" stroke="none" xml:space="preserve">Component Source Editor</text>
    </g>
    <g stroke-linecap="butt" transform="matrix(1,0,0,1,-18,1)" stroke-miterlimit="1.45">
      <rect x="420" y="33" clip-path="url(#clipPath2)" fill="none" width="120" rx="4" ry="4" height="94"/>
    </g>
    <g fill="rgb(255,204,0)" transform="matrix(1,0,0,1,-18,1)" stroke="rgb(255,204,0)">
      <rect x="420" y="233" clip-path="url(#clipPath2)" width="120" rx="4" ry="4" height="94" stroke="none"/>
      <text x="447.5361" y="277.4805" clip-path="url(#clipPath2)" fill="black" font-family="'Verdana'" stroke="none" xml:space="preserve">&lt;&lt;java&gt;&gt;</text>
      <text x="422.5107" y="292.0645" clip-path="url(#clipPath2)" fill="black" font-family="'Verdana'" stroke="none" xml:space="preserve">Component Source</text>
    </g>
    <g stroke-linecap="butt" transform="matrix(1,0,0,1,-18,1)" stroke-miterlimit="1.45">
      <rect x="420" y="233" clip-path="url(#clipPath2)" fill="none" width="120" rx="4" ry="4" height="94"/>
    </g>
    <g fill="rgb(255,204,0)" transform="matrix(1,0,0,1,-18,1)" stroke="rgb(255,204,0)">
      <rect x="240" y="473" clip-path="url(#clipPath2)" width="120" rx="4" ry="4" height="94" stroke="none"/>
      <text x="261.8496" y="517.4805" clip-path="url(#clipPath2)" fill="black" font-family="'Verdana'" stroke="none" xml:space="preserve">&lt;&lt;object&gt;&gt;</text>
      <text x="227.0127" y="532.0645" clip-path="url(#clipPath2)" fill="black" font-family="'Verdana'" stroke="none" xml:space="preserve">Component Meta Object</text>
    </g>
    <g stroke-linecap="butt" transform="matrix(1,0,0,1,-18,1)" stroke-miterlimit="1.45">
      <rect x="240" y="473" clip-path="url(#clipPath2)" fill="none" width="120" rx="4" ry="4" height="94"/>
    </g>
    <g fill="rgb(255,204,0)" transform="matrix(1,0,0,1,-18,1)" stroke="rgb(255,204,0)">
      <rect x="420" y="473" clip-path="url(#clipPath2)" width="120" rx="4" ry="4" height="94" stroke="none"/>
      <text x="441.8496" y="517.4805" clip-path="url(#clipPath2)" fill="black" font-family="'Verdana'" stroke="none" xml:space="preserve">&lt;&lt;object&gt;&gt;</text>
      <text x="423.7207" y="532.0645" clip-path="url(#clipPath2)" fill="black" font-family="'Verdana'" stroke="none" xml:space="preserve">Component Object</text>
    </g>
    <g stroke-linecap="butt" transform="matrix(1,0,0,1,-18,1)" stroke-miterlimit="1.45">
      <rect x="420" y="473" clip-path="url(#clipPath2)" fill="none" width="120" rx="4" ry="4" height="94"/>
    </g>
    <g fill="rgb(255,204,0)" transform="matrix(1,0,0,1,-18,1)" stroke="rgb(255,204,0)">
      <rect x="540" y="713" clip-path="url(#clipPath2)" width="120" rx="4" ry="4" height="94" stroke="none"/>
      <text x="539.0186" y="764.7725" clip-path="url(#clipPath2)" fill="black" font-family="'Verdana'" stroke="none" xml:space="preserve">Framework Runtime</text>
    </g>
    <g stroke-linecap="butt" transform="matrix(1,0,0,1,-18,1)" stroke-miterlimit="1.45">
      <rect x="540" y="713" clip-path="url(#clipPath2)" fill="none" width="120" rx="4" ry="4" height="94"/>
    </g>
    <g fill="rgb(255,204,0)" transform="matrix(1,0,0,1,-18,1)" stroke="rgb(255,204,0)">
      <rect x="330" y="633" clip-path="url(#clipPath2)" width="120" rx="4" ry="4" height="94" stroke="none"/>
      <text x="349.2012" y="677.4805" clip-path="url(#clipPath2)" fill="black" font-family="'Verdana'" stroke="none" xml:space="preserve">&lt;&lt;service&gt;&gt;</text>
      <text x="321.2959" y="692.0645" clip-path="url(#clipPath2)" fill="black" font-family="'Verdana'" stroke="none" xml:space="preserve">Component Repository</text>
    </g>
    <g stroke-linecap="butt" transform="matrix(1,0,0,1,-18,1)" stroke-miterlimit="1.45">
      <rect x="330" y="633" clip-path="url(#clipPath2)" fill="none" width="120" rx="4" ry="4" height="94"/>
    </g>
    <g fill="rgb(255,204,0)" transform="matrix(1,0,0,1,-18,1)" stroke="rgb(255,204,0)">
      <rect x="140" y="713" clip-path="url(#clipPath2)" width="120" rx="4" ry="4" height="94" stroke="none"/>
      <text x="167.6328" y="757.4805" clip-path="url(#clipPath2)" fill="black" font-family="'Verdana'" stroke="none" xml:space="preserve">&lt;&lt;appl&gt;&gt;</text>
      <text x="145.0859" y="772.0645" clip-path="url(#clipPath2)" fill="black" font-family="'Verdana'" stroke="none" xml:space="preserve">Framework Admin</text>
    </g>
    <g stroke-linecap="butt" transform="matrix(1,0,0,1,-18,1)" stroke-miterlimit="1.45">
      <rect x="140" y="713" clip-path="url(#clipPath2)" fill="none" width="120" rx="4" ry="4" height="94"/>
      <path fill="none" d="M300 127.0215 L300 224.9785" clip-path="url(#clipPath2)"/>
      <path d="M300 232.9785 L305 220.9785 L300 223.9785 L295 220.9785 Z" clip-path="url(#clipPath2)" stroke="none"/>
      <path fill="none" d="M257.7026 126.9971 L167.661 227.0434" clip-path="url(#clipPath2)"/>
      <path d="M162.3093 232.9897 L174.0533 227.415 L168.3299 226.3 L166.6204 220.7253 Z" clip-path="url(#clipPath2)" stroke="none"/>
      <path fill="none" d="M480 127.0215 L480 224.9785" clip-path="url(#clipPath2)"/>
      <path d="M480 232.9785 L485 220.9785 L480 223.9785 L475 220.9785 Z" clip-path="url(#clipPath2)" stroke="none"/>
      <path fill="none" d="M300 327.0215 L300 465.0274" clip-path="url(#clipPath2)"/>
      <path d="M300 473.0274 L305 461.0274 L300 464.0274 L295 461.0274 Z" clip-path="url(#clipPath2)" stroke="none"/>
      <text x="304" xml:space="preserve" y="404.7139" font-family="sans-serif" clip-path="url(#clipPath2)" stroke="none">Java XML Binding (JAXB)</text>
      <path fill="none" d="M480 327.0215 L480 465.0274" clip-path="url(#clipPath2)"/>
      <path d="M480 473.0274 L485 461.0274 L480 464.0274 L475 461.0274 Z" clip-path="url(#clipPath2)" stroke="none"/>
      <text x="484" xml:space="preserve" y="404.7139" font-family="sans-serif" clip-path="url(#clipPath2)" stroke="none">Java Launcher</text>
      <path fill="none" d="M539.989 737.1387 L457.4935 705.7118" clip-path="url(#clipPath2)"/>
      <path d="M450.0176 702.8638 L459.4514 711.8082 L458.428 706.0678 L463.0114 702.4633 Z" clip-path="url(#clipPath2)" stroke="none"/>
      <path fill="none" d="M363.5669 633.0078 L330.3514 573.958" clip-path="url(#clipPath2)"/>
      <path d="M326.4293 566.9854 L327.9546 579.8956 L330.8416 574.8296 L336.6703 574.993 Z" clip-path="url(#clipPath2)" stroke="none"/>
      <path fill="none" d="M416.4331 633.0078 L449.6486 573.958" clip-path="url(#clipPath2)"/>
      <path d="M453.5707 566.9854 L443.3297 574.993 L449.1584 574.8296 L452.0454 579.8956 Z" clip-path="url(#clipPath2)" stroke="none"/>
      <path fill="none" d="M260.0012 734.7363 L322.6104 708.3746" clip-path="url(#clipPath2)"/>
      <path d="M329.9835 705.2701 L316.9836 705.3187 L321.6888 708.7626 L320.8641 714.535 Z" clip-path="url(#clipPath2)" stroke="none"/>
    </g>
  </g>
</svg>
