<?xml version="1.0" encoding="UTF-8"?>
<svg xmlns="http://www.w3.org/2000/svg" xmlns:xlink="http://www.w3.org/1999/xlink" fill-opacity="1" color-rendering="auto" color-interpolation="auto" stroke="black" text-rendering="auto" stroke-linecap="square" width="763" stroke-miterlimit="10" stroke-opacity="1" shape-rendering="auto" fill="black" stroke-dasharray="none" font-weight="normal" stroke-width="1" height="382" font-family="'Dialog'" font-style="normal" stroke-linejoin="miter" font-size="12" stroke-dashoffset="0" image-rendering="auto">
  <!--Generated by ySVG-->
  <defs id="genericDefs"/>
  <g>
    <defs id="defs1">
      <clipPath clipPathUnits="userSpaceOnUse" id="clipPath1">
        <path d="M0 0 L763 0 L763 382 L0 382 L0 0 Z"/>
      </clipPath>
      <clipPath clipPathUnits="userSpaceOnUse" id="clipPath2">
        <path d="M163 45 L926 45 L926 427 L163 427 L163 45 Z"/>
      </clipPath>
    </defs>
    <g fill="white" transform="translate(-163,-45)" stroke="white">
      <rect x="163" width="763" height="382" y="45" clip-path="url(#clipPath2)" stroke="none"/>
    </g>
    <g font-size="18" stroke-miterlimit="1.45" font-weight="bold" font-family="sans-serif" transform="matrix(1,0,0,1,-163,-45)" stroke-linecap="butt">
      <text x="219.4946" xml:space="preserve" y="402.0449" clip-path="url(#clipPath2)" stroke="none">BSS</text>
    </g>
    <g fill="rgb(102,102,102)" stroke-miterlimit="1.45" transform="matrix(1,0,0,1,-163,-45)" stroke-linecap="butt" stroke="rgb(102,102,102)">
      <rect x="179" y="60" clip-path="url(#clipPath2)" fill="none" width="118" rx="4" ry="4" height="352"/>
    </g>
    <g font-size="16" stroke-miterlimit="1.45" font-weight="bold" font-family="sans-serif" transform="matrix(1,0,0,1,-163,-45)" stroke-linecap="butt">
      <text x="363.25" xml:space="preserve" y="148.2852" clip-path="url(#clipPath2)" stroke="none">개통관리</text>
    </g>
    <g fill="rgb(102,102,102)" stroke-miterlimit="1.45" transform="matrix(1,0,0,1,-163,-45)" stroke-linecap="butt" stroke="rgb(102,102,102)">
      <rect fill="none" x="357" width="80" height="50" y="117" clip-path="url(#clipPath2)"/>
    </g>
    <g font-size="16" stroke-miterlimit="1.45" font-weight="bold" font-family="sans-serif" transform="matrix(1,0,0,1,-163,-45)" stroke-linecap="butt">
      <text x="503.25" xml:space="preserve" y="109.2852" clip-path="url(#clipPath2)" stroke="none">장애관리</text>
    </g>
    <g fill="rgb(102,102,102)" stroke-miterlimit="1.45" transform="matrix(1,0,0,1,-163,-45)" stroke-linecap="butt" stroke="rgb(102,102,102)">
      <rect fill="none" x="497" width="80" height="50" y="78" clip-path="url(#clipPath2)"/>
    </g>
    <g font-size="16" stroke-miterlimit="1.45" font-weight="bold" font-family="sans-serif" transform="matrix(1,0,0,1,-163,-45)" stroke-linecap="butt">
      <text x="363.25" xml:space="preserve" y="273.2852" clip-path="url(#clipPath2)" stroke="none">작업관리</text>
    </g>
    <g fill="rgb(102,102,102)" stroke-miterlimit="1.45" transform="matrix(1,0,0,1,-163,-45)" stroke-linecap="butt" stroke="rgb(102,102,102)">
      <rect fill="none" x="357" width="80" height="50" y="242" clip-path="url(#clipPath2)"/>
    </g>
    <g font-size="16" stroke-miterlimit="1.45" font-weight="bold" font-family="sans-serif" transform="matrix(1,0,0,1,-163,-45)" stroke-linecap="butt">
      <text x="473.25" xml:space="preserve" y="323.2852" clip-path="url(#clipPath2)" stroke="none">시설관리</text>
    </g>
    <g fill="rgb(102,102,102)" stroke-miterlimit="1.45" transform="matrix(1,0,0,1,-163,-45)" stroke-linecap="butt" stroke="rgb(102,102,102)">
      <rect fill="none" x="467" width="80" height="50" y="292" clip-path="url(#clipPath2)"/>
    </g>
    <g font-size="16" stroke-miterlimit="1.45" font-weight="bold" font-family="sans-serif" transform="matrix(1,0,0,1,-163,-45)" stroke-linecap="butt">
      <text x="588.25" xml:space="preserve" y="373.2852" clip-path="url(#clipPath2)" stroke="none">구성관리</text>
    </g>
    <g fill="rgb(102,102,102)" stroke-miterlimit="1.45" transform="matrix(1,0,0,1,-163,-45)" stroke-linecap="butt" stroke="rgb(102,102,102)">
      <rect fill="none" x="582" width="80" height="50" y="342" clip-path="url(#clipPath2)"/>
    </g>
    <g font-size="18" stroke-miterlimit="1.45" font-weight="bold" font-family="sans-serif" transform="matrix(1,0,0,1,-163,-45)" stroke-linecap="butt">
      <text x="843.4946" xml:space="preserve" y="239.5708" clip-path="url(#clipPath2)" stroke="none">ERP</text>
    </g>
    <g fill="rgb(102,102,102)" stroke-miterlimit="1.45" transform="matrix(1,0,0,1,-163,-45)" stroke-linecap="butt" stroke="rgb(102,102,102)">
      <rect x="813" y="60" clip-path="url(#clipPath2)" fill="none" width="98" rx="4" ry="4" height="345"/>
    </g>
    <g font-size="18" stroke-miterlimit="1.45" font-weight="bold" font-family="sans-serif" transform="matrix(1,0,0,1,-163,-45)" stroke-linecap="butt">
      <text x="485.9937" xml:space="preserve" y="402.0449" clip-path="url(#clipPath2)" stroke="none">OSS</text>
    </g>
    <g fill="rgb(102,102,102)" stroke-miterlimit="1.45" transform="matrix(1,0,0,1,-163,-45)" stroke-linecap="butt" stroke="rgb(102,102,102)">
      <rect x="333" y="60" clip-path="url(#clipPath2)" fill="none" width="344" rx="4" ry="4" height="352"/>
    </g>
    <g font-size="16" stroke-miterlimit="1.45" font-weight="bold" font-family="sans-serif" transform="matrix(1,0,0,1,-163,-45)" stroke-linecap="butt">
      <text x="207.25" xml:space="preserve" y="232.2852" clip-path="url(#clipPath2)" stroke="none">청약관리</text>
    </g>
    <g fill="rgb(102,102,102)" stroke-miterlimit="1.45" transform="matrix(1,0,0,1,-163,-45)" stroke-linecap="butt" stroke="rgb(102,102,102)">
      <rect fill="none" x="201" width="80" height="50" y="201" clip-path="url(#clipPath2)"/>
    </g>
    <g font-size="16" stroke-miterlimit="1.45" font-weight="bold" font-family="sans-serif" transform="matrix(1,0,0,1,-163,-45)" stroke-linecap="butt">
      <text x="222.7812" xml:space="preserve" y="133.2852" clip-path="url(#clipPath2)" stroke="none">CRM</text>
    </g>
    <g fill="rgb(102,102,102)" stroke-miterlimit="1.45" transform="matrix(1,0,0,1,-163,-45)" stroke-linecap="butt" stroke="rgb(102,102,102)">
      <rect fill="none" x="201" width="80" height="50" y="102" clip-path="url(#clipPath2)"/>
      <path fill="none" d="M372 166.9939 L372 242.0473" clip-path="url(#clipPath2)" stroke="black"/>
      <path fill="none" d="M524 127.9746 L524 169 L523.375 173.375 L521.5 176.5 L518.375 178.375 L514 179 L431 179 L426.625 179.625 L423.5 181.5 L421.625 184.625 L421 189 L421 241.9917" clip-path="url(#clipPath2)" stroke="black"/>
      <path fill="none" d="M386 167.0049 L386 222 L386.625 226.375 L388.5 229.5 L391.625 231.375 L396 232 L474 232 L478.375 232.625 L481.5 234.5 L483.375 237.625 L484 242 L484 291.9731" clip-path="url(#clipPath2)" stroke="black"/>
      <path fill="none" d="M537 128 L537 181 L536.375 185.375 L534.5 188.5 L531.375 190.375 L527 191 L514 191 L509.625 191.625 L506.5 193.5 L504.625 196.625 L504 201 L504 291.99" clip-path="url(#clipPath2)" stroke="black"/>
      <path fill="none" d="M397 167 L397 212 L397.625 216.375 L399.5 219.5 L402.625 221.375 L407 222 L594 222 L598.375 222.625 L601.5 224.5 L603.375 227.625 L604 232 L604 341.9719" clip-path="url(#clipPath2)" stroke="black"/>
      <path fill="none" d="M550 127.9648 L550 181 L550.625 185.375 L552.5 188.5 L555.625 190.375 L560 191 L612 191 L616.375 191.625 L619.5 193.5 L621.375 196.625 L622 201 L622 342.0298" clip-path="url(#clipPath2)" stroke="black"/>
      <path fill="none" stroke-dasharray="6,2" d="M441 142 L797.9995 142" clip-path="url(#clipPath2)" stroke="black"/>
    </g>
    <g stroke-linecap="butt" transform="matrix(1,0,0,1,-163,-45)" fill-opacity="0" fill="rgb(0,0,0)" stroke-dasharray="6,2" stroke="rgb(0,0,0)" stroke-opacity="0" stroke-miterlimit="1.45">
      <path d="M433 142 C433 139.7909 434.7909 138 437 138 C439.2091 138 441 139.7909 441 142 C441 144.2091 439.2091 146 437 146 C434.7909 146 433 144.2091 433 142 Z" clip-path="url(#clipPath2)" stroke="none"/>
    </g>
    <g stroke-linecap="butt" transform="matrix(1,0,0,1,-163,-45)" stroke-miterlimit="1.45">
      <path fill="none" d="M433 142 C433 139.7909 434.7909 138 437 138 C439.2091 138 441 139.7909 441 142 C441 144.2091 439.2091 146 437 146 C434.7909 146 433 144.2091 433 142 Z" clip-path="url(#clipPath2)"/>
      <path fill="white" stroke-dasharray="6,2" d="M812.9995 142 L796.9995 136 L796.9995 148 Z" clip-path="url(#clipPath2)" stroke="none"/>
      <path fill="none" d="M812.9995 142 L796.9995 136 L796.9995 148 Z" clip-path="url(#clipPath2)"/>
      <rect x="671.8594" y="116.3984" clip-path="url(#clipPath2)" fill="white" width="131.0156" stroke-dasharray="6,2" height="23.6016" stroke="none"/>
      <text x="673.8594" font-size="16" y="134.4844" clip-path="url(#clipPath2)" font-family="sans-serif" stroke="none" font-weight="bold" xml:space="preserve">가입자 계약 정보</text>
      <path fill="none" stroke-dasharray="6,2" d="M441 267 L797.9995 267" clip-path="url(#clipPath2)"/>
    </g>
    <g stroke-linecap="butt" transform="matrix(1,0,0,1,-163,-45)" fill-opacity="0" fill="rgb(0,0,0)" stroke-dasharray="6,2" stroke="rgb(0,0,0)" stroke-opacity="0" stroke-miterlimit="1.45">
      <path d="M433 267 C433 264.7909 434.7909 263 437 263 C439.2091 263 441 264.7909 441 267 C441 269.2091 439.2091 271 437 271 C434.7909 271 433 269.2091 433 267 Z" clip-path="url(#clipPath2)" stroke="none"/>
    </g>
    <g stroke-linecap="butt" transform="matrix(1,0,0,1,-163,-45)" stroke-miterlimit="1.45">
      <path fill="none" d="M433 267 C433 264.7909 434.7909 263 437 263 C439.2091 263 441 264.7909 441 267 C441 269.2091 439.2091 271 437 271 C434.7909 271 433 269.2091 433 267 Z" clip-path="url(#clipPath2)"/>
      <path fill="white" stroke-dasharray="6,2" d="M812.9995 267 L796.9995 261 L796.9995 273 Z" clip-path="url(#clipPath2)" stroke="none"/>
      <path fill="none" d="M812.9995 267 L796.9995 261 L796.9995 273 Z" clip-path="url(#clipPath2)"/>
      <rect x="693.1797" y="241.3984" clip-path="url(#clipPath2)" fill="white" width="109.6953" stroke-dasharray="6,2" height="23.6016" stroke="none"/>
      <text x="695.1797" font-size="16" y="259.4844" clip-path="url(#clipPath2)" font-family="sans-serif" stroke="none" font-weight="bold" xml:space="preserve">현장작업 정보</text>
      <path fill="none" stroke-dasharray="6,2" d="M550.9982 303 L797.9732 303" clip-path="url(#clipPath2)"/>
    </g>
    <g stroke-linecap="butt" transform="matrix(1,0,0,1,-163,-45)" fill-opacity="0" fill="rgb(0,0,0)" stroke-dasharray="6,2" stroke="rgb(0,0,0)" stroke-opacity="0" stroke-miterlimit="1.45">
      <path d="M542.9982 303 C542.9982 300.7909 544.789 299 546.9982 299 C549.2073 299 550.9982 300.7909 550.9982 303 C550.9982 305.2091 549.2073 307 546.9982 307 C544.789 307 542.9982 305.2091 542.9982 303 Z" clip-path="url(#clipPath2)" stroke="none"/>
    </g>
    <g stroke-linecap="butt" transform="matrix(1,0,0,1,-163,-45)" stroke-miterlimit="1.45">
      <path fill="none" d="M542.9982 303 C542.9982 300.7909 544.789 299 546.9982 299 C549.2073 299 550.9982 300.7909 550.9982 303 C550.9982 305.2091 549.2073 307 546.9982 307 C544.789 307 542.9982 305.2091 542.9982 303 Z" clip-path="url(#clipPath2)"/>
      <path fill="white" stroke-dasharray="6,2" d="M812.9732 303 L796.9732 297 L796.9732 309 Z" clip-path="url(#clipPath2)" stroke="none"/>
      <path fill="none" d="M812.9732 303 L796.9732 297 L796.9732 309 Z" clip-path="url(#clipPath2)"/>
      <rect x="726.9297" y="277.3984" clip-path="url(#clipPath2)" fill="white" width="75.9453" stroke-dasharray="6,2" height="23.6016" stroke="none"/>
      <text x="728.9297" font-size="16" y="295.4844" clip-path="url(#clipPath2)" font-family="sans-serif" stroke="none" font-weight="bold" xml:space="preserve">시설 정보</text>
      <path fill="none" stroke-dasharray="6,2" d="M666 367 L798.0254 367" clip-path="url(#clipPath2)"/>
    </g>
    <g stroke-linecap="butt" transform="matrix(1,0,0,1,-163,-45)" fill-opacity="0" fill="rgb(0,0,0)" stroke-dasharray="6,2" stroke="rgb(0,0,0)" stroke-opacity="0" stroke-miterlimit="1.45">
      <path d="M658 367 C658 364.7909 659.7908 363 662 363 C664.2092 363 666 364.7909 666 367 C666 369.2091 664.2092 371 662 371 C659.7908 371 658 369.2091 658 367 Z" clip-path="url(#clipPath2)" stroke="none"/>
    </g>
    <g stroke-linecap="butt" transform="matrix(1,0,0,1,-163,-45)" stroke-miterlimit="1.45">
      <path fill="none" d="M658 367 C658 364.7909 659.7908 363 662 363 C664.2092 363 666 364.7909 666 367 C666 369.2091 664.2092 371 662 371 C659.7908 371 658 369.2091 658 367 Z" clip-path="url(#clipPath2)"/>
      <path fill="white" stroke-dasharray="6,2" d="M813.0254 367 L797.0254 361 L797.0254 373 Z" clip-path="url(#clipPath2)" stroke="none"/>
      <path fill="none" d="M813.0254 367 L797.0254 361 L797.0254 373 Z" clip-path="url(#clipPath2)"/>
      <rect x="710.0547" y="341.3984" clip-path="url(#clipPath2)" fill="white" width="92.8203" stroke-dasharray="6,2" height="23.6016" stroke="none"/>
      <text x="712.0547" font-size="16" y="359.4844" clip-path="url(#clipPath2)" font-family="sans-serif" stroke="none" font-weight="bold" xml:space="preserve">망구성 정보</text>
      <path fill="none" stroke-dasharray="6,2" d="M285 226 L305 226 L309.375 225.375 L312.5 223.5 L314.375 220.375 L315 216 L315 152 L315.625 147.625 L317.5 144.5 L320.625 142.625 L325 142 L342 142" clip-path="url(#clipPath2)"/>
    </g>
    <g stroke-linecap="butt" transform="matrix(1,0,0,1,-163,-45)" fill-opacity="0" fill="rgb(0,0,0)" stroke-dasharray="6,2" stroke="rgb(0,0,0)" stroke-opacity="0" stroke-miterlimit="1.45">
      <path d="M277 226 C277 223.7909 278.7909 222 281 222 C283.2091 222 285 223.7909 285 226 C285 228.2091 283.2091 230 281 230 C278.7909 230 277 228.2091 277 226 Z" clip-path="url(#clipPath2)" stroke="none"/>
    </g>
    <g stroke-linecap="butt" transform="matrix(1,0,0,1,-163,-45)" stroke-miterlimit="1.45">
      <path fill="none" d="M277 226 C277 223.7909 278.7909 222 281 222 C283.2091 222 285 223.7909 285 226 C285 228.2091 283.2091 230 281 230 C278.7909 230 277 228.2091 277 226 Z" clip-path="url(#clipPath2)"/>
      <path fill="white" stroke-dasharray="6,2" d="M357 142 L341 136 L341 148 Z" clip-path="url(#clipPath2)" stroke="none"/>
      <path fill="none" d="M357 142 L341 136 L341 148 Z" clip-path="url(#clipPath2)"/>
      <path fill="none" d="M241 152 L241 201" clip-path="url(#clipPath2)"/>
    </g>
  </g>
</svg>
