<?xml version="1.0" encoding="UTF-8" standalone="no"?>
<!-- Created with Bouml (http://bouml.free.fr/) -->
<!DOCTYPE svg PUBLIC "-//W3C//DTD SVG 1.1//EN" "http://www.w3.org/Graphics/SVG/1.1/DTD/svg11.dtd">
<svg width="1294" height="807" version="1.1" xmlns="http://www.w3.org/2000/svg">
<g>
	<rect fill="#808080" stroke="none" stroke-opacity="1" x="884" y="80" width="3" height="69" />
	<rect fill="#808080" stroke="none" stroke-opacity="1" x="568" y="146" width="319" height="3" />
	<rect fill="#ffffc0" stroke="black" stroke-width="1" stroke-opacity="1" x="564" y="76" width="320" height="70" />
	<text font-family="" font-size="15" fill="#000000" xml:space="preserve" text-anchor="middle" x="724" y="94">&lt;&lt;interface&gt;&gt;</text>
	<text font-family="" font-size="15" fill="#000000" xml:space="preserve" font-weight="bold" text-anchor="middle" x="724" y="114">java.util.concurrent.Executor</text>
	<line stroke="black" stroke-opacity="1" x1="564" y1="116" x2="884" y2="116" />
	<line stroke="black" stroke-opacity="1" x1="564" y1="125" x2="884" y2="125" />
	<text font-family="" font-size="15" fill="#000000" xml:space="preserve" x="568" y="143">execute(inout command : Runnable) : void</text>
</g>
<g>
	<rect fill="#808080" stroke="none" stroke-opacity="1" x="785" y="200" width="3" height="57" />
	<rect fill="#808080" stroke="none" stroke-opacity="1" x="667" y="254" width="121" height="3" />
	<rect fill="#ffffc0" stroke="black" stroke-width="1" stroke-opacity="1" x="663" y="196" width="122" height="58" />
	<text font-family="" font-size="15" fill="#000000" xml:space="preserve" text-anchor="middle" x="724" y="214">&lt;&lt;interface&gt;&gt;</text>
	<text font-family="" font-size="15" fill="#000000" xml:space="preserve" font-weight="bold" text-anchor="middle" x="724" y="234">TaskExecutor</text>
	<line stroke="black" stroke-opacity="1" x1="663" y1="236" x2="785" y2="236" />
	<line stroke="black" stroke-opacity="1" x1="663" y1="245" x2="785" y2="245" />
</g>
<g>
	<rect fill="#808080" stroke="none" stroke-opacity="1" x="1249" y="521" width="3" height="37" />
	<rect fill="#808080" stroke="none" stroke-opacity="1" x="1039" y="555" width="213" height="3" />
	<rect fill="#ffffc0" stroke="black" stroke-width="1" stroke-opacity="1" x="1035" y="517" width="214" height="38" />
	<text font-family="" font-size="15" fill="#000000" xml:space="preserve" font-weight="bold" text-anchor="middle" x="1142" y="535">ThreadPoolTaskExecutor</text>
</g>
<g>
	<rect fill="#808080" stroke="none" stroke-opacity="1" x="1258" y="334" width="3" height="37" />
	<rect fill="#808080" stroke="none" stroke-opacity="1" x="1038" y="368" width="223" height="3" />
	<rect fill="#ffffc0" stroke="black" stroke-width="1" stroke-opacity="1" x="1034" y="330" width="224" height="38" />
	<text font-family="" font-size="15" fill="#000000" xml:space="preserve" font-weight="bold" text-anchor="middle" x="1146" y="348">SimpleAsyncTaskExecutor</text>
</g>
<g>
	<rect fill="#808080" stroke="none" stroke-opacity="1" x="829" y="471" width="3" height="69" />
	<rect fill="#808080" stroke="none" stroke-opacity="1" x="623" y="537" width="209" height="3" />
	<rect fill="#ffffc0" stroke="black" stroke-width="1" stroke-opacity="1" x="619" y="467" width="210" height="70" />
	<text font-family="" font-size="15" fill="#000000" xml:space="preserve" text-anchor="middle" x="724" y="485">&lt;&lt;interface&gt;&gt;</text>
	<text font-family="" font-size="15" fill="#000000" xml:space="preserve" font-weight="bold" text-anchor="middle" x="724" y="505">SchedulingTaskExecutor</text>
	<line stroke="black" stroke-opacity="1" x1="619" y1="507" x2="829" y2="507" />
	<line stroke="black" stroke-opacity="1" x1="619" y1="516" x2="829" y2="516" />
	<text font-family="" font-size="15" fill="#000000" xml:space="preserve" x="623" y="534">prefersShortLivedTasks()</text>
</g>
<g>
	<rect fill="#808080" stroke="none" stroke-opacity="1" x="1197" y="608" width="3" height="37" />
	<rect fill="#808080" stroke="none" stroke-opacity="1" x="1035" y="642" width="165" height="3" />
	<rect fill="#ffffc0" stroke="black" stroke-width="1" stroke-opacity="1" x="1031" y="604" width="166" height="38" />
	<text font-family="" font-size="15" fill="#000000" xml:space="preserve" font-weight="bold" text-anchor="middle" x="1114" y="622">TimerTaskExecutor</text>
</g>
<g>
	<rect fill="#808080" stroke="none" stroke-opacity="1" x="915" y="307" width="3" height="105" />
	<rect fill="#808080" stroke="none" stroke-opacity="1" x="537" y="409" width="381" height="3" />
	<rect fill="#ffffc0" stroke="black" stroke-width="1" stroke-opacity="1" x="533" y="303" width="382" height="106" />
	<text font-family="" font-size="15" fill="#000000" xml:space="preserve" text-anchor="middle" x="724" y="321">&lt;&lt;interface&gt;&gt;</text>
	<text font-family="" font-size="15" fill="#000000" xml:space="preserve" font-weight="bold" text-anchor="middle" x="724" y="341">AsyncTaskExecutor</text>
	<line stroke="black" stroke-opacity="1" x1="533" y1="343" x2="915" y2="343" />
	<line stroke="black" stroke-opacity="1" x1="533" y1="352" x2="915" y2="352" />
	<text font-family="" font-size="15" fill="#000000" xml:space="preserve" x="537" y="370">execute(in task : Runnable, in timeout : long) : void</text>
	<text font-family="" font-size="15" fill="#000000" xml:space="preserve" x="537" y="388">submit(out task : Callable) : Future</text>
	<text font-family="" font-size="15" fill="#000000" xml:space="preserve" x="537" y="406">submit(out task : Runnable) : Future</text>
</g>
<g>
	<rect fill="#808080" stroke="none" stroke-opacity="1" x="432" y="475" width="3" height="37" />
	<rect fill="#808080" stroke="none" stroke-opacity="1" x="96" y="509" width="339" height="3" />
	<rect fill="#ffffc0" stroke="black" stroke-width="1" stroke-opacity="1" x="92" y="471" width="340" height="38" />
	<text font-family="" font-size="15" fill="#000000" xml:space="preserve" font-weight="bold" text-anchor="middle" x="262" y="489">java.util.concurrent.ThreadPoolExecutor</text>
</g>
<g>
	<rect fill="#808080" stroke="none" stroke-opacity="1" x="1192" y="209" width="3" height="37" />
	<rect fill="#808080" stroke="none" stroke-opacity="1" x="1034" y="243" width="161" height="3" />
	<rect fill="#ffffc0" stroke="black" stroke-width="1" stroke-opacity="1" x="1030" y="205" width="162" height="38" />
	<text font-family="" font-size="15" fill="#000000" xml:space="preserve" font-weight="bold" text-anchor="middle" x="1111" y="223">SyncTaskExecutor</text>
</g>
<g>
	<rect fill="#808080" stroke="none" stroke-opacity="1" x="1244" y="427" width="3" height="37" />
	<rect fill="#808080" stroke="none" stroke-opacity="1" x="1036" y="461" width="211" height="3" />
	<rect fill="#ffffc0" stroke="black" stroke-width="1" stroke-opacity="1" x="1032" y="423" width="212" height="38" />
	<text font-family="" font-size="15" fill="#000000" xml:space="preserve" font-weight="bold" text-anchor="middle" x="1138" y="441">ConcurrentTaskExecutor</text>
</g>
<g>
	<line stroke="black" stroke-opacity="1" x1="726" y1="195" x2="726" y2="156" />
	<line stroke="black" stroke-opacity="1" x1="726" y1="150" x2="720" y2="156" />
	<line stroke="black" stroke-opacity="1" x1="726" y1="150" x2="732" y2="156" />
	<line stroke="black" stroke-opacity="1" x1="720" y1="156" x2="732" y2="156" />
</g>
<g>
	<line stroke-dasharray="4,4" stroke="black" stroke-opacity="1" x1="1050" y1="603" x2="838" y2="536" />
	<line stroke="black" stroke-opacity="1" x1="833" y1="535" x2="836" y2="542" />
	<line stroke="black" stroke-opacity="1" x1="833" y1="535" x2="840" y2="531" />
	<line stroke="black" stroke-opacity="1" x1="836" y1="542" x2="840" y2="531" />
</g>
<g>
	<line stroke-dasharray="4,4" stroke="black" stroke-opacity="1" x1="1029" y1="226" x2="795" y2="226" />
	<line stroke="black" stroke-opacity="1" x1="789" y1="226" x2="795" y2="232" />
	<line stroke="black" stroke-opacity="1" x1="789" y1="226" x2="795" y2="220" />
	<line stroke="black" stroke-opacity="1" x1="795" y1="232" x2="795" y2="220" />
</g>
<g>
	<line stroke="black" stroke-opacity="1" x1="726" y1="302" x2="726" y2="264" />
	<line stroke="black" stroke-opacity="1" x1="726" y1="258" x2="720" y2="264" />
	<line stroke="black" stroke-opacity="1" x1="726" y1="258" x2="732" y2="264" />
	<line stroke="black" stroke-opacity="1" x1="720" y1="264" x2="732" y2="264" />
</g>
<g>
	<line stroke-dasharray="4,4" stroke="black" stroke-opacity="1" x1="1031" y1="459" x2="838" y2="485" />
	<line stroke="black" stroke-opacity="1" x1="833" y1="486" x2="839" y2="491" />
	<line stroke="black" stroke-opacity="1" x1="833" y1="486" x2="838" y2="479" />
	<line stroke="black" stroke-opacity="1" x1="839" y1="491" x2="838" y2="479" />
</g>
<g>
	<line stroke-dasharray="4,4" stroke="black" stroke-opacity="1" x1="1034" y1="528" x2="838" y2="512" />
	<line stroke="black" stroke-opacity="1" x1="833" y1="512" x2="838" y2="518" />
	<line stroke="black" stroke-opacity="1" x1="833" y1="512" x2="839" y2="506" />
	<line stroke="black" stroke-opacity="1" x1="838" y1="518" x2="839" y2="506" />
</g>
<g>
	<line stroke="black" stroke-opacity="1" x1="726" y1="466" x2="726" y2="419" />
	<line stroke="black" stroke-opacity="1" x1="726" y1="413" x2="720" y2="419" />
	<line stroke="black" stroke-opacity="1" x1="726" y1="413" x2="732" y2="419" />
	<line stroke="black" stroke-opacity="1" x1="720" y1="419" x2="732" y2="419" />
</g>
<g>
	<line stroke-dasharray="4,4" stroke="black" stroke-opacity="1" x1="1033" y1="352" x2="924" y2="352" />
	<line stroke="black" stroke-opacity="1" x1="919" y1="353" x2="925" y2="358" />
	<line stroke="black" stroke-opacity="1" x1="919" y1="353" x2="924" y2="346" />
	<line stroke="black" stroke-opacity="1" x1="925" y1="358" x2="924" y2="346" />
</g>
<g>
	<rect fill="#808080" stroke="none" stroke-opacity="1" x="475" y="560" width="3" height="37" />
	<rect fill="#808080" stroke="none" stroke-opacity="1" x="53" y="594" width="425" height="3" />
	<rect fill="#ffffc0" stroke="black" stroke-width="1" stroke-opacity="1" x="49" y="556" width="426" height="38" />
	<text font-family="" font-size="15" fill="#000000" xml:space="preserve" font-weight="bold" text-anchor="middle" x="262" y="574">java.util.concurrent.ScheduledThreadPoolExecutor</text>
</g>
<g>
	<rect fill="#808080" stroke="none" stroke-opacity="1" x="416" y="76" width="3" height="267" />
	<rect fill="#808080" stroke="none" stroke-opacity="1" x="112" y="340" width="307" height="3" />
	<rect fill="#ffffc0" stroke="black" stroke-width="1" stroke-opacity="1" x="108" y="72" width="308" height="268" />
	<text font-family="" font-size="15" fill="#000000" xml:space="preserve" text-anchor="middle" x="262" y="90">&lt;&lt;interface&gt;&gt;</text>
	<text font-family="" font-size="15" fill="#000000" xml:space="preserve" font-weight="bold" text-anchor="middle" x="262" y="110">java.util.concurrent.ExecutorService</text>
	<line stroke="black" stroke-opacity="1" x1="108" y1="112" x2="416" y2="112" />
	<line stroke="black" stroke-opacity="1" x1="108" y1="121" x2="416" y2="121" />
	<text font-family="" font-size="15" fill="#000000" xml:space="preserve" x="112" y="139">shutdown()</text>
	<text font-family="" font-size="15" fill="#000000" xml:space="preserve" x="112" y="157">shutdownNow()</text>
	<text font-family="" font-size="15" fill="#000000" xml:space="preserve" x="112" y="175">isShutdown()</text>
	<text font-family="" font-size="15" fill="#000000" xml:space="preserve" x="112" y="193">isTerminated()</text>
	<text font-family="" font-size="15" fill="#000000" xml:space="preserve" x="112" y="211">awaitTermination()</text>
	<text font-family="" font-size="15" fill="#000000" xml:space="preserve" x="112" y="229">submit()</text>
	<text font-family="" font-size="15" fill="#000000" xml:space="preserve" x="112" y="247">submit()</text>
	<text font-family="" font-size="15" fill="#000000" xml:space="preserve" x="112" y="265">submit()</text>
	<text font-family="" font-size="15" fill="#000000" xml:space="preserve" x="112" y="283">invokeAll()</text>
	<text font-family="" font-size="15" fill="#000000" xml:space="preserve" x="112" y="301">invokeAll()</text>
	<text font-family="" font-size="15" fill="#000000" xml:space="preserve" x="112" y="319">invokeAny()</text>
	<text font-family="" font-size="15" fill="#000000" xml:space="preserve" x="112" y="337">invokeAny()</text>
</g>
<g>
	<line stroke="black" stroke-opacity="1" x1="264" y1="555" x2="264" y2="519" />
	<line stroke="black" stroke-opacity="1" x1="264" y1="513" x2="258" y2="519" />
	<line stroke="black" stroke-opacity="1" x1="264" y1="513" x2="270" y2="519" />
	<line stroke="black" stroke-opacity="1" x1="258" y1="519" x2="270" y2="519" />
</g>
<g>
	<line stroke="black" stroke-opacity="1" x1="420" y1="114" x2="557" y2="113" />
	<line stroke="black" stroke-opacity="1" x1="563" y1="113" x2="556" y2="107" />
	<line stroke="black" stroke-opacity="1" x1="563" y1="113" x2="557" y2="119" />
	<line stroke="black" stroke-opacity="1" x1="556" y1="107" x2="557" y2="119" />
</g>
<g>
	<rect fill="#808080" stroke="none" stroke-opacity="1" x="451" y="392" width="3" height="37" />
	<rect fill="#808080" stroke="none" stroke-opacity="1" x="77" y="426" width="377" height="3" />
	<rect fill="#ffffc0" stroke="black" stroke-width="1" stroke-opacity="1" x="73" y="388" width="378" height="38" />
	<text font-family="" font-size="15" fill="#000000" xml:space="preserve" font-weight="bold" font-style="italic" text-anchor="middle" x="262" y="406">java.util.concurrent.AbstractExecutorService</text>
</g>
<g>
	<line stroke="black" stroke-opacity="1" x1="264" y1="470" x2="264" y2="436" />
	<line stroke="black" stroke-opacity="1" x1="264" y1="430" x2="258" y2="436" />
	<line stroke="black" stroke-opacity="1" x1="264" y1="430" x2="270" y2="436" />
	<line stroke="black" stroke-opacity="1" x1="258" y1="436" x2="270" y2="436" />
</g>
<g>
	<line stroke-dasharray="4,4" stroke="black" stroke-opacity="1" x1="264" y1="387" x2="264" y2="350" />
	<line stroke="black" stroke-opacity="1" x1="264" y1="344" x2="258" y2="350" />
	<line stroke="black" stroke-opacity="1" x1="264" y1="344" x2="270" y2="350" />
	<line stroke="black" stroke-opacity="1" x1="258" y1="350" x2="270" y2="350" />
</g>
</svg>
