<?xml version="1.0" encoding="UTF-8" standalone="no"?>
<!-- Created with Bouml (http://bouml.free.fr/) -->
<!DOCTYPE svg PUBLIC "-//W3C//DTD SVG 1.1//EN" "http://www.w3.org/Graphics/SVG/1.1/DTD/svg11.dtd">
<svg width="623" height="323" version="1.1" xmlns="http://www.w3.org/2000/svg">
<g>
	<rect fill="#808080" stroke="none" stroke-opacity="1" x="353" y="84" width="4" height="38" />
	<rect fill="#808080" stroke="none" stroke-opacity="1" x="237" y="118" width="120" height="4" />
	<rect fill="#ffffc0" stroke="black" stroke-width="1" stroke-opacity="1" x="232" y="79" width="121" height="39" />
	<text font-family="" font-size="16" fill="#000000" xml:space="preserve" font-weight="bold" text-anchor="middle" x="293" y="98">BuildLifecycle</text>
	<line stroke="black" stroke-opacity="1" x1="232" y1="100" x2="353" y2="100" />
	<line stroke="black" stroke-opacity="1" x1="232" y1="109" x2="353" y2="109" />
</g>
<g>
	<rect fill="#808080" stroke="none" stroke-opacity="1" x="342" y="271" width="4" height="38" />
	<rect fill="#808080" stroke="none" stroke-opacity="1" x="248" y="305" width="98" height="4" />
	<rect fill="#ffffc0" stroke="black" stroke-width="1" stroke-opacity="1" x="243" y="266" width="99" height="39" />
	<text font-family="" font-size="16" fill="#000000" xml:space="preserve" font-weight="bold" text-anchor="middle" x="293" y="285">BuildPhase</text>
	<line stroke="black" stroke-opacity="1" x1="243" y1="287" x2="342" y2="287" />
	<line stroke="black" stroke-opacity="1" x1="243" y1="296" x2="342" y2="296" />
</g>
<g>
	<rect fill="#808080" stroke="none" stroke-opacity="1" x="606" y="84" width="4" height="38" />
	<rect fill="#808080" stroke="none" stroke-opacity="1" x="552" y="118" width="58" height="4" />
	<rect fill="#ffffc0" stroke="black" stroke-width="1" stroke-opacity="1" x="547" y="79" width="59" height="39" />
	<text font-family="" font-size="16" fill="#000000" xml:space="preserve" font-weight="bold" text-anchor="middle" x="577" y="98">Plugin</text>
	<line stroke="black" stroke-opacity="1" x1="547" y1="100" x2="606" y2="100" />
	<line stroke="black" stroke-opacity="1" x1="547" y1="109" x2="606" y2="109" />
</g>
<g>
	<rect fill="#808080" stroke="none" stroke-opacity="1" x="602" y="272" width="4" height="38" />
	<rect fill="#808080" stroke="none" stroke-opacity="1" x="556" y="306" width="50" height="4" />
	<rect fill="#ffffc0" stroke="black" stroke-width="1" stroke-opacity="1" x="551" y="267" width="51" height="39" />
	<text font-family="" font-size="16" fill="#000000" xml:space="preserve" font-weight="bold" text-anchor="middle" x="577" y="286">Goal</text>
	<line stroke="black" stroke-opacity="1" x1="551" y1="288" x2="602" y2="288" />
	<line stroke="black" stroke-opacity="1" x1="551" y1="297" x2="602" y2="297" />
</g>
<g>
	<text font-family="" font-size="16" fill="#000000" xml:space="preserve" font-style="italic" x="247" y="193">consists of</text>
</g>
<g>
	<line stroke="black" stroke-opacity="1" x1="295" y1="123" x2="295" y2="265" />
	<polygon fill="#000000" stroke="black" stroke-opacity="1" points="295,123 301,129 295,135 289,129" />
</g>
<g>
	<text font-family="" font-size="16" fill="#000000" xml:space="preserve" font-style="italic" x="541" y="192">provides</text>
</g>
<g>
	<line stroke="black" stroke-opacity="1" x1="579" y1="123" x2="579" y2="266" />
	<polygon fill="#000000" stroke="black" stroke-opacity="1" points="579,123 585,129 579,135 573,129" />
</g>
<g>
	<text font-family="" font-size="16" fill="#000000" xml:space="preserve" font-style="italic" x="430" y="286">binds</text>
</g>
<g>
	<line stroke="black" stroke-opacity="1" x1="347" y1="288" x2="550" y2="288" />
</g>
<g>
	<text font-family="" font-size="16" fill="#000000" xml:space="preserve" x="260" y="260">1..*</text>
</g>
<g>
	<text font-family="" font-size="16" fill="#000000" xml:space="preserve" x="277" y="148">1</text>
</g>
<g>
	<text font-family="" font-size="16" fill="#000000" xml:space="preserve" x="544" y="261">1..*</text>
</g>
<g>
	<text font-family="" font-size="16" fill="#000000" xml:space="preserve" x="561" y="148">1</text>
</g>
<g>
	<text font-family="" font-size="16" fill="#000000" xml:space="preserve" x="533" y="313">*</text>
</g>
<g>
	<text font-family="" font-size="16" fill="#000000" xml:space="preserve" x="357" y="313">*</text>
</g>
</svg>
