<?xml version="1.0" encoding="UTF-8" standalone="no"?>
<!-- Created with Bouml (http://bouml.free.fr/) -->
<!DOCTYPE svg PUBLIC "-//W3C//DTD SVG 1.1//EN" "http://www.w3.org/Graphics/SVG/1.1/DTD/svg11.dtd">
<svg width="662" height="517" version="1.1" xmlns="http://www.w3.org/2000/svg">
<g>
	<rect fill="#808080" stroke="none" stroke-opacity="1" x="309" y="210" width="106" height="32" rx="10" />
	<rect fill="#ffffc0" stroke="black" stroke-opacity="1" x="305" y="206" width="106" height="32" rx="10" />
	<text font-family="" font-size="15" fill="#000000" xml:space="preserve" font-weight="bold" text-anchor="middle" x="358" y="230">suspended</text>
</g>
<g>
	<rect fill="#808080" stroke="none" stroke-opacity="1" x="587" y="473" width="40" height="32" rx="10" />
	<rect fill="#e0ffff" stroke="black" stroke-opacity="1" x="583" y="469" width="40" height="32" rx="10" />
	<text font-family="" font-size="15" fill="#000000" xml:space="preserve" font-weight="bold" text-anchor="middle" x="603" y="493">fail</text>
</g>
<g>
	<rect fill="#808080" stroke="none" stroke-opacity="1" x="564" y="407" width="86" height="32" rx="10" />
	<rect fill="#e0ffff" stroke="black" stroke-opacity="1" x="560" y="403" width="86" height="32" rx="10" />
	<text font-family="" font-size="15" fill="#000000" xml:space="preserve" font-weight="bold" text-anchor="middle" x="603" y="427">success</text>
</g>
<g>
	<rect fill="#808080" stroke="none" stroke-opacity="1" x="110" y="210" width="40" height="32" rx="10" />
	<rect fill="#ffffc0" stroke="black" stroke-opacity="1" x="106" y="206" width="40" height="32" rx="10" />
	<text font-family="" font-size="15" fill="#000000" xml:space="preserve" font-weight="bold" text-anchor="middle" x="126" y="230">init</text>
</g>
<g>
	<rect fill="#808080" stroke="none" stroke-opacity="1" x="327" y="319" width="70" height="32" rx="10" />
	<rect fill="#ffffc0" stroke="black" stroke-opacity="1" x="323" y="315" width="70" height="32" rx="10" />
	<text font-family="" font-size="15" fill="#000000" xml:space="preserve" font-weight="bold" text-anchor="middle" x="358" y="339">waiting</text>
</g>
<g>
	<rect fill="#808080" stroke="none" stroke-opacity="1" x="569" y="100" width="78" height="32" rx="10" />
	<rect fill="#e0ffff" stroke="black" stroke-opacity="1" x="565" y="96" width="78" height="32" rx="10" />
	<text font-family="" font-size="15" fill="#000000" xml:space="preserve" font-weight="bold" text-anchor="middle" x="604" y="120">aborted</text>
</g>
<g>
	<rect fill="#808080" stroke="none" stroke-opacity="1" x="324" y="430" width="76" height="32" rx="10" />
	<rect fill="#ffffc0" stroke="black" stroke-opacity="1" x="320" y="426" width="76" height="32" rx="10" />
	<text font-family="" font-size="15" fill="#000000" xml:space="preserve" font-weight="bold" text-anchor="middle" x="358" y="450">running</text>
</g>
<g>
	<line stroke="black" stroke-opacity="1" x1="150" y1="208" x2="309" y2="108" />
</g>
<g>
	<line stroke="black" stroke-opacity="1" x1="582" y1="482" x2="577" y2="475" />
	<line stroke="black" stroke-opacity="1" x1="582" y1="482" x2="575" y2="486" />
	<line stroke="black" stroke-opacity="1" x1="400" y1="450" x2="582" y2="482" />
</g>
<g>
	<line stroke="black" stroke-opacity="1" x1="559" y1="424" x2="552" y2="418" />
	<line stroke="black" stroke-opacity="1" x1="559" y1="424" x2="553" y2="430" />
	<line stroke="black" stroke-opacity="1" x1="400" y1="439" x2="559" y2="424" />
</g>
<g>
	<line stroke="black" stroke-opacity="1" x1="150" y1="220" x2="240" y2="209" />
</g>
<g>
	<line stroke="black" stroke-opacity="1" x1="345" y1="314" x2="322" y2="284" />
</g>
<g>
	<line stroke="black" stroke-opacity="1" x1="150" y1="241" x2="247" y2="319" />
</g>
<g>
	<line stroke="black" stroke-opacity="1" x1="304" y1="231" x2="237" y2="241" />
</g>
<g>
	<line stroke="black" stroke-opacity="1" x1="371" y1="242" x2="389" y2="268" />
</g>
<g>
	<line stroke="black" stroke-opacity="1" x1="360" y1="425" x2="366" y2="419" />
	<line stroke="black" stroke-opacity="1" x1="360" y1="425" x2="354" y2="419" />
	<line stroke="black" stroke-opacity="1" x1="360" y1="351" x2="360" y2="425" />
</g>
<g>
	<line stroke="black" stroke-opacity="1" x1="564" y1="130" x2="556" y2="126" />
	<line stroke="black" stroke-opacity="1" x1="564" y1="130" x2="560" y2="137" />
	<line stroke="black" stroke-opacity="1" x1="397" y1="205" x2="564" y2="130" />
</g>
<g>
	<line stroke="black" stroke-opacity="1" x1="134" y1="242" x2="191" y2="381" />
</g>
<g>
	<line stroke="black" stroke-opacity="1" x1="392" y1="314" x2="526" y2="251" />
</g>
<g>
	<line stroke="black" stroke-opacity="1" x1="564" y1="112" x2="558" y2="105" />
	<line stroke="black" stroke-opacity="1" x1="564" y1="112" x2="557" y2="117" />
	<line stroke="black" stroke-opacity="1" x1="309" y1="108" x2="564" y2="112" />
</g>
<g>
	<line stroke="black" stroke-opacity="1" x1="594" y1="132" x2="585" y2="134" />
	<line stroke="black" stroke-opacity="1" x1="594" y1="132" x2="596" y2="140" />
	<line stroke="black" stroke-opacity="1" x1="526" y1="251" x2="594" y2="132" />
</g>
<g>
	<line stroke="black" stroke-opacity="1" x1="322" y1="327" x2="316" y2="320" />
	<line stroke="black" stroke-opacity="1" x1="322" y1="327" x2="315" y2="332" />
	<line stroke="black" stroke-opacity="1" x1="247" y1="319" x2="322" y2="327" />
</g>
<g>
	<line stroke="black" stroke-opacity="1" x1="346" y1="242" x2="337" y2="244" />
	<line stroke="black" stroke-opacity="1" x1="346" y1="242" x2="348" y2="250" />
	<line stroke="black" stroke-opacity="1" x1="322" y1="284" x2="346" y2="242" />
</g>
<g>
	<line stroke="black" stroke-opacity="1" x1="304" y1="216" x2="298" y2="209" />
	<line stroke="black" stroke-opacity="1" x1="304" y1="216" x2="297" y2="221" />
	<line stroke="black" stroke-opacity="1" x1="240" y1="209" x2="304" y2="216" />
</g>
<g>
	<line stroke="black" stroke-opacity="1" x1="150" y1="227" x2="154" y2="233" />
	<line stroke="black" stroke-opacity="1" x1="150" y1="227" x2="156" y2="222" />
	<line stroke="black" stroke-opacity="1" x1="237" y1="241" x2="150" y2="227" />
</g>
<g>
	<line stroke="black" stroke-opacity="1" x1="367" y1="314" x2="375" y2="311" />
	<line stroke="black" stroke-opacity="1" x1="367" y1="314" x2="364" y2="305" />
	<line stroke="black" stroke-opacity="1" x1="389" y1="268" x2="367" y2="314" />
</g>
<g>
	<line stroke="black" stroke-opacity="1" x1="319" y1="429" x2="315" y2="421" />
	<line stroke="black" stroke-opacity="1" x1="319" y1="429" x2="311" y2="432" />
	<line stroke="black" stroke-opacity="1" x1="191" y1="381" x2="319" y2="429" />
</g>
</svg>
